<?xml version="1.0" encoding="utf-8"?>
<!-- Generator: Adobe Illustrator 18.0.0, SVG Export Plug-In . SVG Version: 6.00 Build 0)  -->
<!DOCTYPE svg PUBLIC "-//W3C//DTD SVG 1.1//EN" "http://www.w3.org/Graphics/SVG/1.1/DTD/svg11.dtd">
<svg version="1.1" id="Laag_1" xmlns="http://www.w3.org/2000/svg" xmlns:xlink="http://www.w3.org/1999/xlink" x="0px" y="0px"
	 viewBox="0 0 100.3 82.7" enable-background="new 0 0 100.3 82.7" xml:space="preserve">
<g id="such_horspower">
	<path fill-rule="evenodd" clip-rule="evenodd" fill="#FFFFFF" d="M70.1,62.4c6,7.6,2.9,14.7-1.5,18c-4.9,3.6-11.9,2.9-15.9-1.5
		C49,74.8,47.6,66.7,55,60.6c-2.7-0.4-5.3-0.7-7.8-1.1c-0.7-0.1-0.9,0.3-0.9,0.9c0,0.6,0,1.3-0.1,1.9c-0.3,1.8-1.8,3-3.4,2.8
		c-1.7-0.2-2.9-1.8-2.7-3.7c0.6-5.1-0.5-9.8-3.2-14c-6-9.3-17.9-12.3-27.9-7.2c-0.5,0.3-1,0.6-1.5,0.8c-1.7,0.8-3.2,0.4-4.1-1.1
		c-0.9-1.4-0.6-3,0.9-4.2c1.3-1,2.8-1.7,4.3-2.3c0.9-0.3,1.4-0.7,1.5-1.8c0.8-6.6,1.8-13.2,2.6-19.8c0.4-3,1.6-4,4.7-3.6
		c7.7,1,15.4,2.1,23.2,3.1c1.9,0.2,2.8,1.3,3.1,3.1c0.8,6.9,1.7,13.7,2.3,20.6c0.5,5.3,0.4,5.3,5.5,6.1c4.5,0.7,4.4,0.7,5-3.8
		c0.4-3.3,0.7-6.6,1.5-9.9c1.1-4.2,4.2-6.4,8.5-6.1c0.5,0,1.4-0.2,1.3,0.6c0,0.9,0.4,2.1-0.8,2.5c-2.1,0.7-2.7,2.4-3,4.2
		c-0.7,4.2-1.2,8.5-1.9,12.7c-0.2,1.4,0.7,1.4,1.6,1.5c4.2,0.6,8.4,1.1,12.5,1.6c0.6,0.1,1.1,0.1,1.7,0.3c1.9,0.4,2.6,1.6,1.7,3.3
		c-2.1,4-4.2,8-6.3,12C72.8,61.3,71.6,61.9,70.1,62.4z M39.5,32.2c-0.5-4.5-1-9-1.5-13.5c-0.1-0.9-0.6-1.4-1.6-1.5
		c-5.5-0.7-11-1.4-16.5-2.2c-1-0.1-1.4,0.2-1.6,1.2c-0.5,4.2-1.1,8.5-1.7,12.7c-0.1,0.9,0,1.3,0.9,1.4c7,0.9,13.9,1.8,20.9,2.8
		C39.4,33.3,39.6,33,39.5,32.2z M61.7,64c-3.9,0-7,2.9-7.1,6.6c-0.1,3.8,2.9,7.1,6.6,7.1c4,0.1,7.1-2.9,7.1-6.9
		C68.4,67.2,65.3,64,61.7,64z"/>
	<path fill-rule="evenodd" clip-rule="evenodd" fill="#FFFFFF" d="M37.7,55.9c-1.1,3.2,1.4,6.7-1.5,9.3c0.2,3.5-2.8,5.3-4.6,7.5
		c-2,2.3-5.1,4.2-8.1,4.4c-2.8,0.2-5.9,1.9-8.6-0.5c-3.5,1.3-5.5-1.9-7.7-3.4c-2.3-1.4-4.7-3.9-5.3-7c-0.5-2.5-2.8-4.9-1-7.7
		c-2.4-2.9,1.1-5,1.2-7.6c0.1-2.6,2.9-4.7,4.9-6.3c2-1.6,4.2-4,7-3.8c2.6,0.2,5.3-2.5,7.8,0.1c3.1-1.5,4.8,1.5,7.3,2.1
		c2.8,0.7,4.1,3.6,5.7,5.7C36.2,50.7,37.2,53.5,37.7,55.9z M7.2,59c0.1,6.8,5.3,11.9,12.3,11.8c6,0,11.4-5.7,11.3-11.7
		c-0.1-6.9-5.4-12.1-12.1-12C12.3,47.1,7.2,52.5,7.2,59z"/>
	<path fill-rule="evenodd" clip-rule="evenodd" fill="#FFFFFF" d="M87.4,0c1.2,2,2.7,3.4,4.8,4c-1.7,1.9-3.1,3.8-6.3,3.9
		c2.5,1.9,5,2.4,7.5,3.1c-1.6,1.9-6.4,3.2-8.6,2.3c-0.7-0.3-0.6-0.6-0.2-1.1c1.3-1.6,1.4-3.6,1.5-5.5C86.1,4.4,86.2,2.2,87.4,0z"/>
	<path fill-rule="evenodd" clip-rule="evenodd" fill="#FFFFFF" d="M73.1,18.8c2,1.6,4,1.8,5.9,2.6c-2,1.6-4.2,2-6.5,1.7
		c-0.5-0.1-1.2-0.2-0.6-0.9c1.5-1.9,1-4.2,1.3-6.4c0.1-1.1,0.3-2.2,0.9-3.4c1.1,1.4,2.1,2.8,4.1,3C76.8,17.1,75.8,18.7,73.1,18.8z"
		/>
	<path fill-rule="evenodd" clip-rule="evenodd" fill="#FFFFFF" d="M100.3,8c-2.6,0.1-4.4,1.4-6.3,2.8c-0.1-1.9-0.7-3.6-1.1-5.2
		c-0.3-1.2-0.1-1.8,1.4-1.4C96.5,4.8,98.5,5.8,100.3,8z"/>
	<path fill-rule="evenodd" clip-rule="evenodd" fill="#FFFFFF" d="M84.4,19c-2.1,0-3.4,1.2-5,2.2c-0.1-1.6-0.5-2.9-0.9-4.3
		c-0.2-0.9,0.1-1.3,1.1-1.1C81.4,16.3,83,17,84.4,19z"/>
	<path fill-rule="evenodd" clip-rule="evenodd" fill="#FFFFFF" d="M19.2,64.5c-3.3,0-5.8-2.4-5.8-5.6c0-2.9,2.7-5.7,5.5-5.6
		c3.3,0,5.9,2.6,5.8,5.9C24.6,62,22.1,64.5,19.2,64.5z"/>
</g>
</svg>
